HIERARCHY
ROOT Hips
{
	OFFSET 0.000000 94.000000 0.000022
	CHANNELS 6 Xposition Yposition Zposition Yrotation Xrotation Zrotation
	JOINT Spine
	{
		OFFSET 0.000000 12.994698 0.000004
		CHANNELS 6 Xposition Yposition Zposition Yrotation Xrotation Zrotation
		JOINT Spine1
		{
			OFFSET 0.000000 12.709900 0.000004
			CHANNELS 6 Xposition Yposition Zposition Yrotation Xrotation Zrotation
			JOINT Spine2
			{
				OFFSET 0.000000 12.782906 0.000004
				CHANNELS 6 Xposition Yposition Zposition Yrotation Xrotation Zrotation
				JOINT LeftShoulder
				{
					OFFSET 7.040100 10.435104 1.914702
					CHANNELS 6 Xposition Yposition Zposition Yrotation Xrotation Zrotation
					JOINT LeftArm
					{
						OFFSET 0.000000 13.459900 0.000004
						CHANNELS 6 Xposition Yposition Zposition Yrotation Xrotation Zrotation
						JOINT LeftForeArm
						{
							OFFSET -0.000100 26.100006 0.000006
							CHANNELS 6 Xposition Yposition Zposition Yrotation Xrotation Zrotation
							JOINT LeftHand
							{
								OFFSET 0.000000 28.900101 0.000006
								CHANNELS 6 Xposition Yposition Zposition Yrotation Xrotation Zrotation
								JOINT LeftHandIndex1
								{
									OFFSET -2.561200 8.073898 0.103002
									CHANNELS 6 Xposition Yposition Zposition Yrotation Xrotation Zrotation
									JOINT LeftHandIndex2
									{
										OFFSET 0.000000 4.580505 0.000000
										CHANNELS 6 Xposition Yposition Zposition Yrotation Xrotation Zrotation
										JOINT LeftHandIndex3
										{
											OFFSET 0.000000 2.817993 0.000000
											CHANNELS 6 Xposition Yposition Zposition Yrotation Xrotation Zrotation
											End Site
											{
												OFFSET 0.000000 1.356598 0.000000
											}
										}
									}
								}
								JOINT LeftHandMiddle1
								{
									OFFSET -0.545000 8.136505 0.103002
									CHANNELS 6 Xposition Yposition Zposition Yrotation Xrotation Zrotation
									JOINT LeftHandMiddle2
									{
										OFFSET 0.000000 4.702408 0.000000
										CHANNELS 6 Xposition Yposition Zposition Yrotation Xrotation Zrotation
										JOINT LeftHandMiddle3
										{
											OFFSET 0.000000 3.101593 0.000000
											CHANNELS 6 Xposition Yposition Zposition Yrotation Xrotation Zrotation
											End Site
											{
												OFFSET 0.000000 1.499100 0.000000
											}
										}
									}
								}
								JOINT LeftHandPinky1
								{
									OFFSET 3.136800 7.018097 0.103102
									CHANNELS 6 Xposition Yposition Zposition Yrotation Xrotation Zrotation
									JOINT LeftHandPinky2
									{
										OFFSET 0.000000 3.554001 0.000000
										CHANNELS 6 Xposition Yposition Zposition Yrotation Xrotation Zrotation
										JOINT LeftHandPinky3
										{
											OFFSET 0.000000 2.233902 0.000000
											CHANNELS 6 Xposition Yposition Zposition Yrotation Xrotation Zrotation
											End Site
											{
												OFFSET 0.000000 1.120499 0.000000
											}
										}
									}
								}
								JOINT LeftHandRing1
								{
									OFFSET 1.440500 7.806702 0.103102
									CHANNELS 6 Xposition Yposition Zposition Yrotation Xrotation Zrotation
									JOINT LeftHandRing2
									{
										OFFSET 0.000000 4.392197 0.000000
										CHANNELS 6 Xposition Yposition Zposition Yrotation Xrotation Zrotation
										JOINT LeftHandRing3
										{
											OFFSET 0.000000 2.832703 0.000000
											CHANNELS 6 Xposition Yposition Zposition Yrotation Xrotation Zrotation
											End Site
											{
												OFFSET 0.000000 1.350006 0.000000
											}
										}
									}
								}
								JOINT LeftHandThumb1
								{
									OFFSET -2.786300 2.078995 0.094600
									CHANNELS 6 Xposition Yposition Zposition Yrotation Xrotation Zrotation
									JOINT LeftHandThumb2
									{
										OFFSET 0.000000 3.961899 0.000000
										CHANNELS 6 Xposition Yposition Zposition Yrotation Xrotation Zrotation
										JOINT LeftHandThumb3
										{
											OFFSET 0.000000 3.007095 0.000000
											CHANNELS 6 Xposition Yposition Zposition Yrotation Xrotation Zrotation
											End Site
											{
												OFFSET 0.000000 1.729507 0.000000
											}
										}
									}
								}
							}
						}
					}
				}
				JOINT Neck
				{
					OFFSET 0.000000 18.209305 0.000004
					CHANNELS 6 Xposition Yposition Zposition Yrotation Xrotation Zrotation
					JOINT Head
					{
						OFFSET 0.000000 11.033493 0.000002
						CHANNELS 6 Xposition Yposition Zposition Yrotation Xrotation Zrotation
						End Site
						{
							OFFSET 0.000000 8.022003 0.000002
						}
					}
				}
				JOINT RightShoulder
				{
					OFFSET -7.040100 10.435104 1.914702
					CHANNELS 6 Xposition Yposition Zposition Yrotation Xrotation Zrotation
					JOINT RightArm
					{
						OFFSET 0.000000 13.459900 0.000004
						CHANNELS 6 Xposition Yposition Zposition Yrotation Xrotation Zrotation
						JOINT RightForeArm
						{
							OFFSET 0.000000 26.100098 0.000006
							CHANNELS 6 Xposition Yposition Zposition Yrotation Xrotation Zrotation
							JOINT RightHand
							{
								OFFSET -0.000100 28.900101 -0.000094
								CHANNELS 6 Xposition Yposition Zposition Yrotation Xrotation Zrotation
								JOINT RightHandIndex1
								{
									OFFSET 2.561100 8.074005 0.103002
									CHANNELS 6 Xposition Yposition Zposition Yrotation Xrotation Zrotation
									JOINT RightHandIndex2
									{
										OFFSET 0.000000 4.580505 -0.000098
										CHANNELS 6 Xposition Yposition Zposition Yrotation Xrotation Zrotation
										JOINT RightHandIndex3
										{
											OFFSET 0.000000 2.817993 0.000000
											CHANNELS 6 Xposition Yposition Zposition Yrotation Xrotation Zrotation
											End Site
											{
												OFFSET 0.000000 1.356598 0.000000
											}
										}
									}
								}
								JOINT RightHandMiddle1
								{
									OFFSET 0.545000 8.136597 0.103002
									CHANNELS 6 Xposition Yposition Zposition Yrotation Xrotation Zrotation
									JOINT RightHandMiddle2
									{
										OFFSET 0.000000 4.702408 -0.000098
										CHANNELS 6 Xposition Yposition Zposition Yrotation Xrotation Zrotation
										JOINT RightHandMiddle3
										{
											OFFSET 0.000000 3.101593 0.000000
											CHANNELS 6 Xposition Yposition Zposition Yrotation Xrotation Zrotation
											End Site
											{
												OFFSET 0.000000 1.499100 0.000000
											}
										}
									}
								}
								JOINT RightHandPinky1
								{
									OFFSET -3.136800 7.018097 0.103002
									CHANNELS 6 Xposition Yposition Zposition Yrotation Xrotation Zrotation
									JOINT RightHandPinky2
									{
										OFFSET 0.000000 3.554092 -0.000098
										CHANNELS 6 Xposition Yposition Zposition Yrotation Xrotation Zrotation
										JOINT RightHandPinky3
										{
											OFFSET 0.000000 2.233994 0.000000
											CHANNELS 6 Xposition Yposition Zposition Yrotation Xrotation Zrotation
											End Site
											{
												OFFSET 0.000000 1.120499 0.000000
											}
										}
									}
								}
								JOINT RightHandRing1
								{
									OFFSET -1.440500 7.806793 0.103002
									CHANNELS 6 Xposition Yposition Zposition Yrotation Xrotation Zrotation
									JOINT RightHandRing2
									{
										OFFSET 0.000000 4.392303 -0.000098
										CHANNELS 6 Xposition Yposition Zposition Yrotation Xrotation Zrotation
										JOINT RightHandRing3
										{
											OFFSET 0.000000 2.832703 0.000000
											CHANNELS 6 Xposition Yposition Zposition Yrotation Xrotation Zrotation
											End Site
											{
												OFFSET 0.000000 1.350006 0.000000
											}
										}
									}
								}
								JOINT RightHandThumb1
								{
									OFFSET 2.786300 2.079102 0.094500
									CHANNELS 6 Xposition Yposition Zposition Yrotation Xrotation Zrotation
									JOINT RightHandThumb2
									{
										OFFSET 0.000000 3.962006 -0.000098
										CHANNELS 6 Xposition Yposition Zposition Yrotation Xrotation Zrotation
										JOINT RightHandThumb3
										{
											OFFSET 0.000000 3.007202 -0.000098
											CHANNELS 6 Xposition Yposition Zposition Yrotation Xrotation Zrotation
											End Site
											{
												OFFSET 0.000000 1.729507 0.000000
											}
										}
									}
								}
							}
						}
					}
				}
			}
		}
	}
	JOINT LeftUpLeg
	{
		OFFSET 8.100000 0.000000 0.000000
		CHANNELS 6 Xposition Yposition Zposition Yrotation Xrotation Zrotation
		JOINT LeftLeg
		{
			OFFSET 0.000000 43.199997 0.000010
			CHANNELS 6 Xposition Yposition Zposition Yrotation Xrotation Zrotation
			JOINT LeftFoot
			{
				OFFSET 0.000000 43.300003 0.000010
				CHANNELS 6 Xposition Yposition Zposition Yrotation Xrotation Zrotation
				JOINT LeftToeBase
				{
					OFFSET 0.000000 14.572693 0.000004
					CHANNELS 6 Xposition Yposition Zposition Yrotation Xrotation Zrotation
					End Site
					{
						OFFSET 0.000000 3.500000 0.000000
					}
				}
			}
		}
	}
	JOINT RightUpLeg
	{
		OFFSET -8.100000 0.000000 0.000000
		CHANNELS 6 Xposition Yposition Zposition Yrotation Xrotation Zrotation
		JOINT RightLeg
		{
			OFFSET 0.000000 43.199997 0.000010
			CHANNELS 6 Xposition Yposition Zposition Yrotation Xrotation Zrotation
			JOINT RightFoot
			{
				OFFSET 0.000000 43.300003 0.000010
				CHANNELS 6 Xposition Yposition Zposition Yrotation Xrotation Zrotation
				JOINT RightToeBase
				{
					OFFSET 0.000000 14.572693 0.000004
					CHANNELS 6 Xposition Yposition Zposition Yrotation Xrotation Zrotation
					End Site
					{
						OFFSET 0.000000 3.500000 0.000000
					}
				}
			}
		}
	}
}
MOTION
Frames: 4
Frame Time: 0.010000
0.168822 96.452904 2.597122 13.848853 -0.996678 1.988235 -0.000000 12.994690 0.000002 -0.000001 0.000000 -0.000000 -0.000000 12.709906 0.000003 -0.000001 3.543435 -0.000000 0.000000 12.782887 0.000005 -24.085668 5.845030 -2.594813 7.040112 10.435104 1.914712 89.999893 100.128551 -0.000085 0.000003 13.459906 0.000011 9.348245 84.485198 9.881357 -0.000099 26.100031 0.000006 -0.021100 -3.460601 0.740902 0.000002 28.900085 0.000008 0.000000 0.000000 0.000001 -2.561204 8.073916 0.102999 4.455599 17.500796 8.688299 0.000001 4.580552 -0.000000 -0.000001 17.999980 0.000000 0.000003 2.818038 -0.000006 0.000001 17.998687 -0.000798 -0.545004 8.136565 0.103013 0.000000 17.999592 5.400100 0.000001 4.702374 0.000021 0.000001 18.000098 -0.000000 -0.000002 3.101619 -0.000001 0.000100 17.999987 0.000102 3.136800 7.018173 0.103093 -22.769090 18.002384 -13.293799 0.000000 3.554042 -0.000001 -0.000199 17.999387 0.000398 0.000001 2.233925 -0.000003 -0.000005 18.000380 -0.000599 1.440498 7.806704 0.103110 -11.405897 19.284896 -1.936603 -0.000000 4.392212 0.000003 -0.000001 17.999983 0.000001 -0.000001 2.832706 0.000002 -0.000001 17.998990 -0.000102 -2.786298 2.079037 0.094593 59.081293 -12.433410 28.170804 -0.000001 3.961914 -0.000001 -0.354598 6.351300 -6.390005 0.000003 3.007117 0.000003 -0.355003 6.350896 -6.390101 -0.000000 18.209320 0.000011 -0.000001 -0.000001 0.000000 0.000000 11.033454 -0.000004 12.950802 -9.405503 -5.652297 -7.040094 10.435093 1.914710 -89.999907 102.224982 -0.000044 -0.000001 13.459906 0.000004 -67.301597 69.749407 -83.702199 0.000000 26.100109 0.000007 -0.293398 3.806397 -7.686794 -0.000106 28.900040 -0.000094 -0.000002 -0.000002 0.000003 2.561103 8.074024 0.103011 -4.455800 17.500695 -8.688098 0.000003 4.580506 -0.000106 -0.000000 17.999987 -0.000002 -0.000002 2.817968 -0.000005 0.000000 17.999391 0.000199 0.545002 8.136612 0.103000 -0.000002 17.999886 -5.399896 0.000002 4.702424 -0.000082 0.000001 17.999985 -0.000000 -0.000000 3.101640 0.000009 0.000001 17.999985 -0.000001 -3.136801 7.018125 0.103010 22.769300 18.002594 13.293899 0.000005 3.554128 -0.000092 0.000000 17.998903 0.000100 -0.000001 2.234045 -0.000013 -0.000101 17.999288 0.000198 -1.440500 7.806810 0.103005 11.405698 19.284899 1.936699 0.000001 4.392319 -0.000105 0.000000 17.999997 -0.000001 -0.000003 2.832715 -0.000013 0.000001 17.999193 -0.000002 2.786300 2.079074 0.094492 -59.081287 -12.433304 -28.170401 -0.000005 3.961986 -0.000103 0.354798 6.350598 6.389696 0.000002 3.007210 -0.000101 0.354896 6.350797 6.390206 8.100000 -0.000013 -0.000002 -0.282402 1.274628 -179.799102 0.000001 43.199997 0.000010 0.011998 0.000100 -0.000000 0.000002 43.300011 0.000039 -0.477300 57.091495 -0.583899 -0.000002 14.572709 0.000015 0.000000 31.157585 0.415798 -8.100001 -0.000011 -0.000001 -14.608303 3.765924 177.411691 -0.000002 43.199982 0.000011 -0.008300 0.000000 0.000100 0.000000 43.300007 0.000042 1.637499 64.007000 1.900800 -0.000002 14.572705 0.000018 -0.000000 27.661692 0.077600 
0.166938 96.444298 3.433822 13.860726 -0.966887 1.995707 -0.000001 12.994698 0.000003 0.000001 0.000000 -0.000000 -0.000000 12.709883 0.000003 0.000001 3.542358 -0.000000 0.000000 12.782902 0.000004 -24.105563 5.845687 -2.597521 7.040112 10.435120 1.914701 89.999893 100.128551 -0.000107 0.000001 13.459902 -0.000027 11.021565 84.231498 11.609676 -0.000102 26.100060 0.000005 -0.027899 -3.201797 1.054399 0.000000 28.900085 0.000005 -0.000002 -0.000000 0.000002 -2.561198 8.073900 0.103014 4.455601 17.500799 8.688299 0.000001 4.580552 -0.000001 -0.000000 17.999985 -0.000000 0.000000 2.818069 -0.000006 0.000002 17.998686 -0.000799 -0.545000 8.136534 0.102997 -0.000000 17.999598 5.400098 0.000001 4.702408 0.000007 0.000000 17.999992 -0.000000 0.000000 3.101634 -0.000008 0.000101 17.999990 0.000100 3.136806 7.018143 0.103109 -22.769093 18.002389 -13.293797 0.000010 3.554010 0.000011 -0.000298 17.999384 0.000298 0.000003 2.233910 -0.000011 -0.000001 18.000376 -0.000597 1.440502 7.806704 0.103110 -11.405899 19.284899 -1.936602 0.000001 4.392258 0.000003 0.000000 17.999987 0.000001 0.000003 2.832706 -0.000006 0.000000 17.998991 -0.000100 -2.786298 2.079022 0.094594 59.081293 -12.433411 28.170808 -0.000005 3.961899 0.000003 -0.354598 6.351300 -6.389997 -0.000000 3.007117 0.000003 -0.354998 6.350896 -6.390101 -0.000002 18.209351 0.000000 -0.000000 0.000003 -0.000000 0.000000 11.033484 0.000004 12.952602 -9.580100 -5.698198 -7.040108 10.435122 1.914703 -89.999921 102.224982 -0.000014 -0.000003 13.459903 -0.000037 -66.892393 69.243099 -83.505292 0.000001 26.100033 0.000004 -0.301298 3.680898 -8.158195 -0.000103 28.900070 -0.000097 0.000001 -0.000001 -0.000002 2.561094 8.074055 0.103004 -4.455796 17.500690 -8.688097 0.000001 4.580491 -0.000106 -0.000002 17.999987 -0.000001 -0.000001 2.817969 0.000003 0.000002 17.999387 0.000199 0.544999 8.136611 0.103004 -0.000099 17.999891 -5.399898 -0.000010 4.702424 -0.000067 0.000003 17.999989 -0.000002 0.000001 3.101655 0.000016 -0.000002 17.999985 0.000001 -3.136811 7.018139 0.103001 22.769291 18.002598 13.293904 0.000000 3.554112 -0.000092 -0.000000 17.998899 0.000100 0.000002 2.234030 -0.000010 -0.000000 17.999288 0.000199 -1.440511 7.806841 0.103005 11.405700 19.284897 1.936702 0.000001 4.392319 -0.000105 0.000000 17.999994 0.000001 -0.000006 2.832730 -0.000021 -0.000001 17.999189 -0.000000 2.786284 2.079088 0.094488 -59.081273 -12.433304 -28.170398 0.000007 3.962017 -0.000100 0.354797 6.350593 6.389700 0.000006 3.007180 -0.000093 0.354900 6.350795 6.390200 8.100000 -0.000005 0.000000 -0.426998 1.580828 -179.594196 0.000001 43.200027 0.000010 0.012200 0.000100 -0.000000 0.000003 43.300007 0.000034 -0.255499 56.886091 -0.306199 0.000003 14.572707 -0.000002 -0.000000 32.007489 0.508699 -8.099999 0.000003 -0.000000 -14.316200 4.163323 177.548281 0.000001 43.199997 0.000010 -0.008300 0.000000 0.000100 -0.000000 43.300022 0.000038 1.372198 64.277688 1.587800 0.000001 14.572713 0.000016 -0.000000 27.536792 0.078300 
-0.025863 96.432899 4.237023 13.922591 -0.839244 2.062604 0.000000 12.994682 0.000004 0.000001 0.000000 -0.000000 0.000000 12.709883 0.000004 0.000001 3.542358 -0.000000 0.000001 12.782932 0.000004 -24.127531 5.844685 -2.599744 7.040110 10.435107 1.914702 89.999893 100.128558 -0.000115 -0.000002 13.459898 0.000062 12.551069 83.961302 13.199671 -0.000105 26.100031 0.000004 -0.032901 -2.918197 1.365597 0.000000 28.900101 0.000009 -0.000002 -0.000000 0.000001 -2.561198 8.073900 0.103014 4.455596 17.500794 8.688298 0.000000 4.580536 -0.000008 0.000000 17.999983 -0.000000 0.000002 2.817993 0.000002 -0.000000 17.998684 -0.000800 -0.545002 8.136534 0.103005 0.000001 17.999596 5.400097 -0.000000 4.702408 0.000007 0.000000 17.999994 -0.000001 -0.000001 3.101619 -0.000001 0.000101 17.999992 0.000101 3.136807 7.018143 0.103116 -22.769091 18.002383 -13.293801 -0.000005 3.554058 0.000008 -0.000302 17.999386 0.000397 0.000004 2.233909 -0.000001 -0.000100 18.000386 -0.000600 1.440502 7.806704 0.103102 -11.405899 19.284891 -1.936602 -0.000001 4.392242 0.000003 -0.000000 17.999985 -0.000000 0.000001 2.832721 0.000002 -0.000001 17.998993 -0.000102 -2.786298 2.079022 0.094597 59.081293 -12.433407 28.170799 0.000009 3.961929 0.000011 -0.354599 6.351299 -6.390000 0.000002 3.007086 0.000005 -0.354998 6.350895 -6.390103 0.000000 18.209305 0.000000 -0.000000 0.000001 -0.000000 -0.000001 11.033500 -0.000004 12.952502 -9.751198 -5.743396 -7.040093 10.435097 1.914701 -89.999921 102.224982 -0.000027 -0.000001 13.459920 -0.000023 -66.447004 68.754207 -83.263401 -0.000002 26.100140 0.000006 -0.308196 3.567097 -8.604291 -0.000099 28.900024 -0.000092 0.000001 0.000001 -0.000000 2.561105 8.074009 0.103003 -4.455792 17.500695 -8.688096 0.000003 4.580491 -0.000105 0.000004 17.999980 0.000004 -0.000002 2.817999 -0.000005 -0.000000 17.999387 0.000201 0.545004 8.136580 0.103004 -0.000095 17.999891 -5.399895 -0.000005 4.702439 -0.000082 0.000000 17.999978 -0.000003 -0.000001 3.101624 0.000017 0.000001 17.999987 0.000000 -3.136797 7.018078 0.103016 22.769294 18.002598 13.293904 0.000000 3.554128 -0.000092 -0.000000 17.998904 0.000100 0.000004 2.234018 0.000006 -0.000001 17.999177 0.000197 -1.440499 7.806795 0.103013 11.405702 19.284903 1.936702 -0.000002 4.392335 -0.000090 -0.000000 17.999980 -0.000001 0.000000 2.832715 -0.000013 0.000000 17.999186 0.000000 2.786292 2.079089 0.094499 -59.081293 -12.433302 -28.170400 -0.000001 3.962016 -0.000096 0.354798 6.350601 6.389700 0.000008 3.007211 -0.000092 0.354901 6.350793 6.390194 8.100001 -0.000010 0.000000 -0.578699 1.869228 -179.394796 -0.000002 43.200012 0.000010 0.012300 0.000100 0.000000 0.000003 43.300026 0.000033 -0.030802 56.685598 -0.023299 0.000001 14.572719 0.000009 -0.000001 32.768591 0.604506 -8.100000 -0.000018 0.000001 -14.016601 4.540922 177.689775 0.000001 43.199982 0.000010 -0.008200 -0.000000 0.000100 -0.000000 43.299988 0.000030 1.092498 64.528089 1.259698 0.000001 14.572697 0.000005 -0.000000 27.401887 0.078700 
-0.227363 96.419899 4.969223 13.985018 -0.711838 2.129774 0.000000 12.994713 0.000003 0.000001 0.000000 0.000000 -0.000000 12.709913 0.000004 0.000001 3.542358 0.000000 0.000000 12.782917 0.000007 -24.149597 5.843685 -2.601980 7.040114 10.435071 1.914701 89.999886 100.128558 -0.000070 0.000001 13.459914 0.000065 13.942348 83.686005 14.650372 -0.000107 26.100031 0.000010 -0.036701 -2.635198 1.681400 -0.000001 28.900085 0.000006 0.000001 -0.000001 -0.000001 -2.561202 8.073885 0.103014 4.455596 17.500794 8.688297 -0.000001 4.580521 -0.000008 -0.000001 17.999989 0.000000 -0.000001 2.818023 -0.000006 0.000002 17.998689 -0.000800 -0.545003 8.136534 0.103016 -0.000101 17.999594 5.400100 0.000002 4.702404 0.000006 -0.000002 18.000093 0.000000 0.000001 3.101604 -0.000008 0.000101 17.999995 0.000100 3.136807 7.018143 0.103116 -22.769086 18.002383 -13.293798 0.000001 3.554040 0.000003 -0.000301 17.999389 0.000297 0.000001 2.233910 0.000007 -0.000106 18.000378 -0.000596 1.440500 7.806688 0.103110 -11.405897 19.284896 -1.936601 0.000003 4.392243 0.000003 -0.000000 17.999978 0.000004 -0.000001 2.832706 0.000002 -0.000002 17.998988 -0.000101 -2.786306 2.079022 0.094609 59.081280 -12.433409 28.170803 -0.000007 3.961883 0.000003 -0.354595 6.351298 -6.390001 -0.000002 3.007102 -0.000001 -0.355002 6.350895 -6.390098 -0.000001 18.209305 0.000004 0.000001 -0.000006 0.000000 0.000001 11.033500 -0.000000 12.952303 -9.922096 -5.788897 -7.040093 10.435076 1.914699 -89.999907 102.224982 -0.000045 -0.000004 13.459906 0.000050 -66.010691 68.267713 -83.029289 -0.000003 26.100117 0.000007 -0.313397 3.445195 -9.050989 -0.000100 28.900055 -0.000093 0.000001 -0.000002 0.000001 2.561105 8.074039 0.103003 -4.455798 17.500697 -8.688100 -0.000000 4.580506 -0.000105 -0.000002 17.999983 0.000000 0.000000 2.817969 -0.000005 -0.000001 17.999386 0.000199 0.545004 8.136642 0.103008 -0.000001 17.999891 -5.399894 -0.000004 4.702469 -0.000082 -0.000000 17.999983 0.000004 -0.000001 3.101624 0.000009 -0.000000 17.999983 0.000001 -3.136803 7.018139 0.103017 22.769298 18.002594 13.293902 -0.000001 3.554143 -0.000099 -0.000000 17.998894 0.000102 0.000002 2.234014 0.000005 -0.000001 17.999290 0.000200 -1.440500 7.806840 0.103005 11.405699 19.284903 1.936701 -0.000002 4.392365 -0.000082 0.000001 17.999995 0.000000 -0.000003 2.832715 -0.000013 0.000003 17.999193 -0.000003 2.786300 2.079104 0.094492 -59.081287 -12.433302 -28.170403 0.000001 3.961994 -0.000102 0.354797 6.350597 6.389793 -0.000003 3.007211 -0.000094 0.354901 6.350792 6.390199 8.100000 -0.000008 -0.000000 -0.735899 2.112626 -179.207198 -0.000002 43.199997 0.000010 0.012398 0.000100 -0.000000 -0.000001 43.300026 0.000023 0.210999 56.432399 0.282800 -0.000001 14.572710 0.000002 -0.000000 33.568081 0.711801 -8.099999 0.000007 -0.000001 -13.715598 4.869725 177.835491 -0.000002 43.199997 0.000010 -0.008100 0.000099 0.000100 -0.000002 43.300007 0.000033 0.802500 64.726185 0.921300 0.000001 14.572725 0.000003 -0.000000 27.324090 0.080000 
